<svg width="564" height="342" viewBox="0 0 564 342" fill="none" xmlns="http://www.w3.org/2000/svg">
<path d="M425.053 75.6866C450.429 90.0397 460.974 99.5843 479.331 121.496C496.699 146.779 506.847 169.434 507.704 200.534C507.597 224.3 504.968 234.089 496.633 255.805C481.684 286.246 470.512 298.265 446.3 321.918C425.136 340.178 398.626 360.413 369.855 364.496L369.175 365.32C354.379 373.912 317.092 378.774 299.791 380.295L290.954 381.107C283.726 381.303 255.041 382.215 249.314 383.632L242.466 383.97C227.881 386.039 208.41 389.009 195.205 395.289L187.386 398.871C174.479 405.61 166.997 410.747 158.567 422.603L154.776 428.739C151.315 437.502 148.316 448.292 152.511 457.55L154.475 463.304C160.166 471.337 166.607 477.159 158.924 485.366C150.694 488.762 142.366 486.036 134.329 482.729C132.53 481.986 130.739 481.216 128.957 480.419C119.927 475.4 109.747 468.845 102.13 461.8L94.178 453.36C67.2051 418.711 68.3799 388.448 91.2234 353.503C116.262 319.917 152.99 304.757 192.916 296.661C218.504 289.81 282.644 291.241 311.697 291.295C318.991 291.124 324.759 290.316 331.914 289.364C334.45 287.874 347.241 282.495 350.821 280.863C374.601 269.995 385.334 259.749 400.506 239.708L402.749 233.876C409.078 227.222 408.481 210.255 407.522 201.728L405.824 194.805C399.945 181.262 397.201 178.83 386.899 168.465L379.84 164.091C367.338 156.612 360.562 154.317 346.063 152.568L338.827 152.571C323.929 154.972 318.373 157.769 307.841 168.355L305.554 171.435L302.026 177.722L300.09 183.861C300.24 193.503 301.074 201.65 308.708 208.749L310.048 210.115C317.001 214.144 320.469 214.481 328.409 216.045C330.395 215.664 329.668 215.904 332.165 216.905C334.398 226.9 321.82 235.997 314.032 237.546C247.246 250.843 219.732 164.455 249.192 116.889C269.213 84.5689 288.439 70.6447 321.606 61.1924C357.723 51.9638 391.864 60.239 425.053 75.6866Z" fill="#04B1A4"/>
<path d="M252.314 364.268C247.798 357.279 245.963 345.173 250.139 338.455C270.502 305.955 321.913 311.423 352.387 326.394C369.798 334.952 380.121 345.205 369.853 364.49L369.173 365.315C354.377 373.907 317.09 378.769 299.789 380.29L290.952 381.102C283.724 381.298 255.039 382.21 249.312 383.627L242.464 383.965C242.387 377.532 242.48 371.108 242.732 364.689L252.314 364.268Z" fill="#288276"/>
<path d="M300.368 367.059C299.585 372.766 299.549 374.551 299.795 380.292L290.959 381.103C283.73 381.299 255.045 382.211 249.318 383.628L242.47 383.966C242.393 377.533 242.487 371.11 242.738 364.691L252.321 364.269L253.229 364.641C265.716 364.687 280.241 365.961 292.881 366.791L300.368 367.059Z" fill="#FDE3B3"/>
<path d="M253.229 364.641C249.978 371.553 250.054 375.968 249.318 383.628L242.47 383.966C242.393 377.533 242.487 371.11 242.738 364.691L252.321 364.269L253.229 364.641Z" fill="#F8C987"/>
<path d="M300.368 367.059C299.585 372.766 299.549 374.551 299.795 380.292L290.959 381.103L292.881 366.791L300.368 367.059Z" fill="#F8C987"/>
<path d="M300.365 367.063C328.663 369.063 342.241 366.807 369.175 365.32C354.379 373.912 317.092 378.774 299.791 380.295C299.544 374.555 299.582 372.77 300.365 367.063Z" fill="#FDE3B3"/>
<path d="M192.919 296.663C199.287 338.643 109.344 395.242 91.2269 353.505C116.265 319.919 152.994 304.758 192.919 296.663Z" fill="#288276"/>
<path d="M321.61 61.184C357.728 51.9553 391.868 60.2305 425.058 75.6782C417.98 121.583 312.954 99.7048 320.953 63.8254C321.153 62.9403 321.369 62.0561 321.61 61.184Z" fill="#288276"/>
<path d="M479.329 121.493C496.696 146.776 506.844 169.431 507.701 200.53C464.209 236.575 433.523 130.005 479.329 121.493Z" fill="#288276"/>
<path d="M279.552 176.34C270.45 182.214 259.575 185.118 252.132 174.04C233.575 146.431 259.895 103.393 293.071 108.9C305.303 110.933 308.496 126.224 306.107 136.801C301.823 140.49 297.307 144.212 293.336 148.22L287.114 156.84C283.986 163.25 280.963 168.581 280.175 175.771L279.552 176.34Z" fill="#288276"/>
<path d="M154.787 428.734C151.327 437.496 148.327 448.286 152.523 457.544L154.487 463.299C160.177 471.332 166.619 477.153 158.935 485.36C150.705 488.757 142.377 486.03 134.34 482.724C132.541 481.98 130.75 481.21 128.968 480.413L125.828 475.005L121.298 467.146C115.207 447.647 117.766 437.911 125.076 419.816C137.341 425.567 141.208 427.706 154.787 428.734Z" fill="#FDE3B3"/>
<path d="M154.485 463.301C160.176 471.334 166.617 477.156 158.934 485.363C150.704 488.76 142.376 486.033 134.339 482.727C132.54 481.983 130.749 481.213 128.967 480.416L125.827 475.008C140.129 470.245 140.666 472.666 154.485 463.301Z" fill="#FDE3B3"/>
<path d="M152.511 457.55L154.475 463.304C140.656 472.669 140.119 470.247 125.817 475.009L121.287 467.15C136.275 465.561 139.568 464.902 152.511 457.55Z" fill="#F8C987"/>
<path d="M496.64 255.795C481.691 286.235 470.519 298.255 446.307 321.908C433.742 323.003 430.47 314.264 432.592 303.215C436.976 280.419 472.882 250.193 496.64 255.795Z" fill="#288276"/>
<path d="M306.107 136.801C319.99 129.59 322.789 127.801 338.833 125.374C339.572 136.103 339.417 141.886 338.837 152.564C323.939 154.965 318.383 157.762 307.851 168.348L305.564 171.428L302.036 177.715L300.099 183.854C291.072 186.245 288.284 185.408 279.584 182.206L279.552 176.34L280.175 175.771C280.963 168.581 283.986 163.25 287.114 156.84L293.336 148.22C297.307 144.212 301.823 140.49 306.107 136.801Z" fill="#FDE3B3"/>
<path d="M305.562 171.435L302.034 177.722L300.097 183.861C291.07 186.252 288.282 185.415 279.582 182.213L279.55 176.348L280.173 175.778C280.961 168.589 283.984 163.258 287.111 156.848C292.513 162.825 296.664 172.885 305.562 171.435Z" fill="#FDE3B3"/>
<path d="M302.03 177.717L300.093 183.856C291.065 186.247 288.277 185.41 279.577 182.208L279.546 176.342L280.169 175.773C289.622 179.106 292.287 179.363 302.03 177.717Z" fill="#F8C987"/>
<path d="M293.334 148.22C301.62 159.52 293.697 158.535 307.851 168.348L305.564 171.428C296.666 172.878 292.514 162.819 287.112 156.841L293.334 148.22Z" fill="#F8C987"/>
<path d="M402.997 144.959C417.571 158.139 426.177 168.27 432.007 187.723L433.533 195.521C418.505 195.419 419.677 198.142 407.526 201.727L405.828 194.805C399.948 181.262 397.204 178.83 386.903 168.465L379.844 164.09C383.558 156.354 384.416 155.082 390.126 148.578L395.16 139.306L402.997 144.959Z" fill="#FDE3B3"/>
<path d="M432.01 187.716L433.535 195.514C418.507 195.412 419.679 198.135 407.528 201.72L405.83 194.798C416.212 190.602 420.838 189.258 432.01 187.716Z" fill="#F8C987"/>
<path d="M390.127 148.566L394.384 153.47C390.709 159.364 388.909 161.831 386.903 168.453L379.844 164.079C383.559 156.343 384.416 155.071 390.127 148.566Z" fill="#F8C987"/>
<path d="M395.167 139.3L403.003 144.953C400.655 147.301 396.784 151.478 394.39 153.476L390.133 148.572L395.167 139.3Z" fill="#F8C987"/>
<path d="M179.933 375.115C180.708 382.42 184.712 391.743 187.394 398.872C174.487 405.611 167.005 410.749 158.575 422.604L154.784 428.74C141.204 427.712 137.338 425.573 125.072 419.823L129.489 412.557C144.069 393.793 158.227 383.909 179.933 375.115Z" fill="#FDE3B3"/>
<path d="M158.574 422.597L154.783 428.732C141.203 427.704 137.337 425.566 125.071 419.815L129.488 412.549C138.964 420.873 146.632 421.284 158.574 422.597Z" fill="#F8C987"/>
<path d="M347.476 125.318C366.974 126.126 378.148 130.497 395.16 139.31L390.126 148.582C384.415 155.086 383.558 156.358 379.843 164.094C367.341 156.615 360.565 154.32 346.065 152.571L338.83 152.575C339.41 141.896 339.565 136.114 338.826 125.384L347.476 125.318Z" fill="#FDE3B3"/>
<path d="M347.483 125.311C346.62 131.927 345.843 145.797 346.072 152.564L338.837 152.568C339.417 141.889 339.572 136.107 338.832 125.377L347.483 125.311Z" fill="#F8C987"/>
<path d="M242.734 364.691C242.482 371.11 242.389 377.534 242.466 383.967C227.881 386.036 208.41 389.006 195.205 395.286L187.386 398.867C184.704 391.738 180.7 382.415 179.926 375.111L188.863 372.089C204.651 366.634 226.067 365.109 242.734 364.691Z" fill="#FDE3B3"/>
<path d="M188.864 372.087C187.659 383.554 188.016 385.685 195.207 395.284L187.388 398.866C184.706 391.737 180.702 382.414 179.927 375.109L188.864 372.087Z" fill="#F8C987"/>
<path d="M433.536 195.516C434.167 204.749 434.297 212.951 432.42 222.042C430.09 228.609 428.277 233.759 425.316 240.038L420.014 247.486C412.685 243.778 408.359 242.334 400.512 239.702L402.756 233.87C409.085 227.216 408.488 210.249 407.529 201.722C419.68 198.137 418.508 195.413 433.536 195.516Z" fill="#FDE3B3"/>
<path d="M425.308 240.041L420.005 247.49C412.676 243.782 408.35 242.337 400.504 239.706L402.747 233.874C406.79 234.484 420.411 238.662 425.308 240.041Z" fill="#F8C987"/>
<path d="M400.504 239.706C408.35 242.337 412.676 243.782 420.005 247.49L413.397 255.864C406.869 261.328 401.071 266.494 393.706 270.866L387.557 273.914L382.805 276.971L382.419 276.527C373.307 281.058 365.934 282.859 356.176 285.638L345.463 287.947L331.913 289.361C334.449 287.87 347.24 282.491 350.82 280.859C374.599 269.992 385.332 259.747 400.504 239.706Z" fill="#FDE3B3"/>
<path d="M382.422 276.524C382.033 270.962 378.261 272.03 378.577 264.626L379.783 263.655L382.898 264.651L378.951 263.982C386.531 265.346 386.829 266.527 393.709 270.864L387.561 273.911L382.808 276.968L382.422 276.524Z" fill="#F8C987"/>
<path d="M432.423 222.044C438.093 219.404 444.095 214.394 447.836 215.576C456.822 229.402 435.84 264.307 413.409 255.864L420.018 247.488L425.32 240.039C428.281 233.76 430.094 228.611 432.423 222.044Z" fill="#288276"/>
<path d="M300.096 183.854C300.246 193.496 301.08 201.643 308.715 208.742L310.054 210.108L304.384 219.547L294.994 215.231C283.536 204.454 280.578 197.403 279.581 182.206C288.28 185.408 291.069 186.245 300.096 183.854Z" fill="#FDE3B3"/>
<path d="M308.719 208.747L310.059 210.113L304.389 219.552L294.999 215.236C299.895 210.503 301.623 207.044 308.719 208.747Z" fill="#F8C987"/>
<path d="M331.922 289.36L345.473 287.946L343.413 294.261C332.087 307.86 322.461 304.375 311.705 291.29C318.999 291.119 324.766 290.311 331.922 289.36Z" fill="#04B1A4"/>
<path d="M356.181 285.631C358.805 292.637 358.894 297.94 351.735 301.168C348.086 300.092 345.113 297.853 343.409 294.255L345.469 287.94L356.181 285.631Z" fill="#288276"/>
<path d="M310.056 210.115C317.009 214.145 320.477 214.481 328.417 216.045C319.174 220.6 315.026 222.404 304.386 219.554L310.056 210.115Z" fill="#FDE3B3"/>
<path d="M387.567 273.911C390.495 283.156 387.926 289.62 377.725 291.382L376.447 290.261C378.21 283.971 381.935 280.932 382.815 276.968L387.567 273.911Z" fill="#288276"/>
<path d="M94.1892 453.357C97.6293 449.25 96.0278 449.913 100.474 449.111C104.904 451.082 103.35 449.859 106.305 453.865C106.842 458.396 107.217 456.632 104.899 460.519L102.142 461.797L94.1892 453.357Z" fill="#288276"/>
<path d="M234.282 323.827C238.294 328.093 238.276 328.308 237.905 333.873C231.215 346.118 210.177 347.95 197.554 344.234C194.074 340.159 194.517 340.311 194.342 335.796C199.138 323.138 222.48 321.238 234.282 323.827Z" fill="#288276"/>
</svg>
