<svg width="5590" height="922" viewBox="0 0 5590 922" fill="none" xmlns="http://www.w3.org/2000/svg">
<path d="M3270.24 78.6089C3414.49 16.9081 3589.56 4.98903 3744.24 21.1308C3828.93 33.8862 3943.77 64.586 4017.48 109.594C4179.73 183.552 4389.69 360.826 4559.28 407.567C4623.21 425.965 4701.93 440.162 4768.35 441.169C4943.76 444.403 5081.92 437.673 5250.32 376.267C5324.37 350.235 5381.31 309.98 5436.38 255.43C5511.19 234.179 5523.31 222.997 5552.2 300.001L5570.51 268.489C5561.46 330.864 5496.95 410.226 5446.35 448.141C5440.72 452.332 5435.02 456.409 5429.24 460.376L5409.52 471.97C5361.38 498.713 5324.86 509.061 5272.47 525.216L5254.47 528.862C5228.33 535.238 5132.25 556.615 5114.22 567.175L5093.46 574.373C5025.6 598.429 4971.76 616.587 4901.31 633.945L4885.01 636.502C4835.08 648.078 4684.34 661.762 4636.87 651.081L4632.69 651.192C4550.86 641.945 4509.48 635.997 4429.62 611.805L4404.54 603.734C4316.29 571.169 4255.8 544.694 4172.07 501.24L4151.82 490.073C4072.15 456.483 4022.1 422.94 3929.62 389.723L3908.46 382.012C3840.81 361.605 3778.67 347.604 3707.17 348.813L3704.06 348.164C3689.17 348.825 3662.53 349.244 3648.75 351.687L3628.32 352.681C3568.98 362.346 3522.78 371.879 3465.86 390.154L3445.56 396.92C3366.56 423.946 3305.28 453.105 3230.65 489.857L3208.81 501.747C3149.62 533.321 3079.94 581.422 3027.02 608.233L3006.07 621.723C2952.92 657.069 2883.21 700.884 2827.68 732.387L2806.36 744.917C2760.8 774.288 2659.93 822.284 2608.79 841.559L2590.18 849.384C2503.81 878.312 2455.55 892.623 2364.87 909.165L2341.77 912.744C2299.18 917.009 2140.16 927.625 2101.75 916.292L2090.07 915C2006.54 904.393 1962.24 894.463 1880.98 870.2L1859.5 863.071C1796.88 839.876 1736.01 812.231 1677.33 780.346L1659.19 770.746C1602.33 738.261 1546.61 703.816 1492.13 667.479L1472.58 655.128C1421.09 620.147 1364.66 586.099 1311.22 553.815L1289.24 540.765C1240.64 513.705 1175.27 480.715 1124.03 461.733L1104.96 454.412C1061.12 435.51 986.029 418.611 938.134 413.186L915.092 410.321C909.511 373.47 909.056 354.856 924.256 321.23C897.766 319.156 871.211 318.073 844.641 317.984C818.39 318.919 797.628 320.267 771.538 323.107L747.333 325.27C714.371 331.449 686.124 337 653.73 345.398L624.563 354.484L600.18 362.155C600.159 392.222 600.583 402.637 612.405 430.362C614.362 434.944 621.056 447.412 621.856 450.535L605.958 455.216C552.882 474.149 501.599 497.765 452.713 525.795L435.833 534.134C413.059 507.492 407.125 485.903 404.898 451.852L367.422 473.533C338.027 491.79 308.968 510.582 280.257 529.896C287.114 562.47 291.455 585.869 315.724 610.808L300.536 620.963C260.205 649.552 219.093 677.11 175.053 699.727L157.21 708.269C81.5966 734.479 3.16247 743.228 0 638.647C0.166122 611.719 12.6591 587.192 24.5799 563.803C73.7612 469.204 185.475 370.165 271.502 310.386C293.276 294.709 313.367 282.542 336.246 268.597C389.008 238.364 437.71 215.686 492.742 190.885C740.362 94.0552 994.357 60.1494 1256.04 120.869C1302.65 129.559 1375.26 150.8 1417.82 171.856C1444.7 182.164 1483.07 197.267 1508.46 210.901C1680.41 285.804 1816.97 379.018 2004.43 443.486C2332.65 556.369 2570.67 490.294 2857.95 308.716C2918.21 270.612 3050.84 180.257 3112.79 151.157L3116.42 149.467C3145.68 126.371 3233.29 89.7335 3270.24 78.6089Z" fill="#04B1A4"/>
<path d="M3270.22 78.6144C3332.39 77.8778 3414.93 71.7805 3463.23 116.496C3507.96 161.486 3477.32 222.538 3439.2 259.368C3362.45 333.544 3256.31 374.389 3151.19 375.928C2996.52 378.192 3007.71 263.454 3093.05 177.139C3099.54 170.572 3111.94 157.482 3116.4 149.473C3145.66 126.376 3233.27 89.739 3270.22 78.6144Z" fill="#237F74"/>
<path d="M1256.04 120.874C1302.65 129.564 1375.25 150.805 1417.82 171.861C1444.7 182.17 1483.07 197.272 1508.45 210.907C1503.81 228.249 1504.18 226.569 1485.72 231.277L1483.98 238.379C1499 259.441 1508.06 274.981 1515.84 299.893C1531.82 351.089 1495.34 388.667 1447.27 399.901C1366.17 418 1283.21 392.122 1212.87 350.717C1163.67 321.755 1069.25 235.828 1111.46 169.452C1142.7 120.323 1207.97 130.327 1256.04 120.874Z" fill="#237F74"/>
<path d="M1417.8 171.858C1444.69 182.166 1483.06 197.269 1508.44 210.903C1503.8 228.246 1504.17 226.565 1485.71 231.273L1483.97 238.375C1470.16 225.873 1427.29 184.369 1417.8 171.858Z" fill="#237F74"/>
<path d="M4104.26 406.35C4088.97 370.555 4066.79 307.475 4120.96 288.338C4158.4 275.119 4208.42 289.055 4241.8 305.816C4289.33 326.306 4400.23 422.219 4368.73 482.484C4361.66 496.054 4349.26 506.057 4334.49 510.076C4326.62 512.279 4318.31 514.261 4310.31 516.448C4342.27 530.852 4367.41 541.271 4400.33 553.198C4399.59 573.922 4399.25 583.587 4404.54 603.739C4316.28 571.174 4255.8 544.699 4172.06 501.245L4151.82 490.078C4148.22 466.88 4151.82 460.713 4158.93 438.211C4140.38 427.998 4121.83 418.197 4104.26 406.35Z" fill="#237F74"/>
<path d="M4158.91 438.217L4177.24 449.052C4216.87 470.419 4269.23 499.959 4310.3 516.455C4342.26 530.859 4367.39 541.278 4400.31 553.205C4399.57 573.929 4399.23 583.594 4404.52 603.746C4316.26 571.181 4255.78 544.706 4172.04 501.251L4151.8 490.084C4148.2 466.886 4151.8 460.72 4158.91 438.217Z" fill="#FDE3B3"/>
<path d="M4158.91 438.217L4177.24 449.052C4165.12 476.398 4176.04 491.355 4172.04 501.251L4151.8 490.084C4148.2 466.886 4151.8 460.72 4158.91 438.217Z" fill="#F8C987"/>
<path d="M3744.22 21.1177C3828.91 33.8732 3943.75 64.5729 4017.46 109.581C4066.16 169.917 4072.1 223.917 3976.02 226.412C3897.91 228.458 3822.3 198.885 3766.28 144.392C3729.85 109.04 3699.34 64.1178 3744.22 21.1177Z" fill="#237F74"/>
<path d="M624.557 354.5C564.374 329.062 558 286.918 600.755 238.654C663.589 168.047 781.363 147.677 856.38 210.84C873.893 225.589 874.995 244.719 874.967 265.514C875.33 287.087 862.511 306.488 844.634 317.999C818.384 318.935 797.622 320.283 771.531 323.123L747.327 325.286C714.364 331.465 686.117 337.016 653.723 345.413L624.557 354.5Z" fill="#237F74"/>
<path d="M855.797 298.948L852.653 302.551C865.001 287.11 867.887 283.701 874.968 265.494C875.331 287.067 862.512 306.468 844.636 317.98C818.385 318.915 797.623 320.263 771.533 323.103L747.328 325.266C714.365 331.445 686.118 336.996 653.725 345.393C642.807 336.085 634.175 334.322 620.522 329.971C694.855 302.585 777.224 284.187 855.797 298.948Z" fill="#237F74"/>
<path d="M5436.36 255.439C5511.18 234.188 5523.3 223.006 5552.19 300.01L5570.49 268.498C5561.45 330.873 5496.94 410.234 5446.33 448.15C5440.7 452.341 5435.01 456.418 5429.23 460.385C5427.53 452.156 5421.41 435.205 5418.49 426.454L5439.44 412.354C5385.48 417.253 5267.1 474.315 5250.31 376.276C5324.35 350.243 5381.3 309.989 5436.36 255.439Z" fill="#237F74"/>
<path d="M5570.48 268.474C5561.44 330.85 5496.92 410.211 5446.32 448.127C5440.69 452.318 5435 456.395 5429.21 460.361C5427.52 452.133 5421.4 435.181 5418.48 426.43L5439.43 412.331C5488.06 382.631 5520.3 345.986 5552.18 299.986L5570.48 268.474Z" fill="#FDE3B3"/>
<path d="M24.5799 563.803C73.7612 469.204 185.475 370.165 271.502 310.386C296.989 326.252 290.238 337.652 290.02 367.411C261.321 463.425 200.917 546.755 98.1214 572.867C68.2871 580.446 49.4582 586.758 24.5799 563.803Z" fill="#237F74"/>
<path d="M2350.32 814.782L2367.96 812.921C2373.68 835.919 2376.04 850.689 2373.22 874.527C2370.49 885.952 2367.81 897.854 2364.84 909.172L2341.74 912.751C2299.16 917.015 2140.14 927.631 2101.73 916.298L2090.05 915.006C2096.92 899.048 2099.6 892.996 2103.13 876.179C2106.71 853.581 2107.85 842.218 2108.28 819.373L2126.31 820.752C2162.14 823.607 2207.13 824.34 2243.23 823.217C2279.08 822.949 2314.87 820.13 2350.32 814.782Z" fill="#FDE3B3"/>
<path d="M2350.34 814.782L2367.98 812.921C2373.69 835.919 2376.05 850.689 2373.24 874.527C2370.51 885.952 2367.83 897.854 2364.86 909.172L2341.76 912.751C2346.89 900.888 2349.46 887.943 2352.47 875.336C2354.76 850.652 2353.07 838.919 2350.34 814.782Z" fill="#F8C987"/>
<path d="M2108.28 819.362L2126.31 820.74C2126.59 838.335 2127.61 857.161 2124.62 874.38C2121.9 887.092 2119.84 902.883 2112.33 913.047C2108.63 914.345 2105.59 915.662 2101.73 916.287L2090.05 914.995C2096.92 899.037 2099.6 892.984 2103.13 876.168C2106.71 853.57 2107.85 842.206 2108.28 819.362Z" fill="#F8C987"/>
<path d="M2582.39 757.327L2599.78 751.01C2613.1 780.057 2617.21 810.237 2608.79 841.547L2590.18 849.372C2503.81 878.299 2455.55 892.611 2364.87 909.153C2367.83 897.836 2370.51 885.934 2373.25 874.508C2376.06 850.67 2373.7 835.9 2367.99 812.902L2370.83 810.979C2424.29 808.877 2531.73 775.626 2582.39 757.327Z" fill="#FDE3B3"/>
<path d="M2582.39 757.327L2599.78 751.01C2613.1 780.057 2617.21 810.237 2608.79 841.547L2590.18 849.372C2587.07 843.417 2593.01 815.216 2591.95 801.101C2590.26 778.7 2589.76 779.583 2582.39 757.327Z" fill="#F8C987"/>
<path d="M1688.74 685.638L1706.81 695.155C1767.83 725.683 1819.95 751.109 1885.71 771.602L1906.02 778.295C1900.1 810.912 1893.98 839.372 1880.96 870.198L1859.47 863.068C1796.86 839.873 1735.98 812.229 1677.31 780.344L1659.17 770.743C1671.13 743.407 1680.52 714.291 1688.74 685.638Z" fill="#FDE3B3"/>
<path d="M1885.71 771.615L1906.02 778.307C1900.11 810.924 1893.99 839.384 1880.96 870.211L1859.48 863.081C1876.2 832.765 1880.87 805.075 1885.71 771.615Z" fill="#F8C987"/>
<path d="M1688.74 685.638L1706.81 695.155C1697.4 723.667 1688.56 752.542 1677.31 780.344L1659.17 770.743C1671.13 743.407 1680.52 714.291 1688.74 685.638Z" fill="#F8C987"/>
<path d="M1906.01 778.312C1971.63 798.116 2039.87 813.465 2108.28 819.382C2107.85 842.226 2106.71 853.59 2103.13 876.188C2099.6 893.004 2096.92 899.057 2090.04 915.015C2006.51 904.408 1962.21 894.478 1880.95 870.215C1893.98 839.389 1900.09 810.929 1906.01 778.312Z" fill="#FDE3B3"/>
<path d="M2811.75 650.708C2827.13 683.196 2828.42 696.197 2827.65 732.374L2806.33 744.904C2760.77 774.275 2659.9 822.271 2608.77 841.546C2617.19 810.237 2613.08 780.057 2599.76 751.009C2672.05 722.281 2724.32 697.64 2792.3 661.577L2811.75 650.708Z" fill="#FDE3B3"/>
<path d="M2811.76 650.708C2827.14 683.196 2828.43 696.197 2827.66 732.374L2806.34 744.904C2803.91 708.413 2819.02 707.456 2792.32 661.577L2811.76 650.708Z" fill="#F8C987"/>
<path d="M1502.22 576.46L1518.56 587.091C1573.8 620.604 1631.26 656.461 1688.75 685.632C1680.53 714.285 1671.14 743.401 1659.18 770.738C1602.32 738.253 1546.6 703.808 1492.12 667.471L1472.57 655.119C1477.55 621.05 1484.3 605.175 1502.22 576.46Z" fill="#FDE3B3"/>
<path d="M1502.22 576.46L1518.56 587.091C1498.46 616.985 1494.78 631.21 1492.12 667.471L1472.57 655.119C1477.55 621.05 1484.3 605.175 1502.22 576.46Z" fill="#F8C987"/>
<path d="M600.173 362.142C600.151 392.208 600.576 402.624 612.398 430.349C614.355 434.93 621.049 447.399 621.849 450.522L605.95 455.202C552.874 474.135 501.592 497.752 452.706 525.781L435.826 534.12C413.052 507.479 407.117 485.89 404.89 451.839L423.567 441.189C439.874 431.241 467.878 417.674 485.659 408.464C516.361 394.236 548.487 381.398 579.826 368.475L600.173 362.142Z" fill="#FDE3B3"/>
<path d="M600.173 362.142C600.151 392.208 600.576 402.624 612.398 430.349C614.355 434.93 621.049 447.399 621.849 450.522L605.95 455.202C583.751 435.398 582.401 395.95 579.826 368.475L600.173 362.142Z" fill="#F8C987"/>
<path d="M404.89 451.847L423.567 441.197C424.8 480.175 428.036 495.775 452.706 525.789L435.826 534.128C413.052 507.487 407.117 485.898 404.89 451.847Z" fill="#F8C987"/>
<path d="M3445.41 319.906C3461.69 345.886 3465.93 359.21 3465.84 390.169L3445.53 396.935C3366.53 423.961 3305.25 453.12 3230.62 489.872C3227.08 455.781 3226.22 448.695 3208.13 420.102C3283.44 381.965 3348.66 354.582 3427.32 325.498L3445.41 319.906Z" fill="#FDE3B3"/>
<path d="M3445.41 319.906C3461.69 345.886 3465.93 359.21 3465.84 390.169L3445.53 396.935C3443.01 389.858 3444.73 381.953 3443.97 374.503C3442.06 355.37 3436.03 342.212 3427.32 325.498L3445.41 319.906Z" fill="#F8C987"/>
<path d="M1315.16 461.418L1325.28 466.135L1329.19 470.003C1366.12 491.684 1402.7 513.959 1438.92 536.822L1502.23 576.479C1484.31 605.195 1477.56 621.069 1472.58 655.139C1421.09 620.158 1364.66 586.11 1311.22 553.826L1289.24 540.776C1292.21 504.291 1294.46 491.475 1315.16 461.418Z" fill="#FDE3B3"/>
<path d="M1315.16 461.418L1325.28 466.135L1329.19 470.003C1310.42 503.829 1309.21 514.913 1311.22 553.826L1289.24 540.776C1292.21 504.291 1294.46 491.475 1315.16 461.418Z" fill="#F8C987"/>
<path d="M3009.3 533.327C3024.1 562.282 3027.73 575.363 3027.02 608.245L3006.07 621.735C2952.91 657.081 2883.2 700.896 2827.67 732.399C2828.44 696.222 2827.15 683.221 2811.77 650.733C2869.85 619.621 2932.08 579.957 2989.64 545.931L3009.3 533.327Z" fill="#FDE3B3"/>
<path d="M3009.28 533.327C3024.07 562.282 3027.7 575.363 3027 608.245L3006.05 621.735C3006.97 586.234 3009.46 575.052 2989.62 545.931L3009.28 533.327Z" fill="#F8C987"/>
<path d="M1119.37 368.839L1140.55 376.689C1206.16 404.472 1252.77 428.012 1315.13 461.41C1294.43 491.467 1292.19 504.283 1289.21 540.768C1240.62 513.708 1175.25 480.719 1124.01 461.737L1104.94 454.416C1103.7 413.152 1105.24 407.174 1119.37 368.839Z" fill="#FDE3B3"/>
<path d="M1119.37 368.839L1140.55 376.689C1121.31 410.949 1121.14 422.27 1124.01 461.737L1104.94 454.416C1103.7 413.152 1105.24 407.174 1119.37 368.839Z" fill="#F8C987"/>
<path d="M924.254 321.22L944.293 324.171C1010.38 335.003 1056.75 345.274 1119.39 368.826C1105.27 407.16 1103.72 413.139 1104.96 454.403C1061.12 435.5 986.027 418.601 938.131 413.176L915.089 410.311C909.509 373.46 909.054 354.847 924.254 321.22Z" fill="#FDE3B3"/>
<path d="M924.254 321.22L944.293 324.171C927.958 361.684 929.385 372.789 938.131 413.176L915.089 410.311C909.509 373.46 909.054 354.847 924.254 321.22Z" fill="#F8C987"/>
<path d="M4559.28 407.582C4623.21 425.98 4701.93 440.178 4768.35 441.184C4811.75 498.519 4703.53 518.572 4666.28 514.954C4630.07 511.437 4581.71 501.95 4557.16 471.948C4536.95 447.239 4534.05 427.903 4559.28 407.582Z" fill="#237F74"/>
<path d="M3208.15 420.08C3226.24 448.672 3227.1 455.758 3230.64 489.849L3208.79 501.739C3149.6 533.313 3079.93 581.414 3027.01 608.225C3027.72 575.343 3024.09 562.262 3009.29 533.307C3067.62 498.339 3127.18 462.673 3187.47 431.271L3208.15 420.08Z" fill="#FDE3B3"/>
<path d="M3208.14 420.08C3226.23 448.672 3227.09 455.758 3230.63 489.849L3208.78 501.739C3200.17 485.363 3222.53 471.741 3187.46 431.271L3208.14 420.08Z" fill="#F8C987"/>
<path d="M367.393 473.545C302.239 461.199 318.765 415.283 353.245 379.623C386.429 345.301 424.212 332.291 470.816 330.802C472.68 331.673 474.529 332.568 476.368 333.491C516.773 353.926 502.425 377.41 485.637 408.489C467.856 417.699 439.852 431.265 423.545 441.214L404.868 451.863L367.393 473.545Z" fill="#237F74"/>
<path d="M280.239 529.898C287.096 562.472 291.437 585.87 315.706 610.81L300.518 620.964C260.188 649.554 219.076 677.112 175.035 699.729C149.006 665.687 145.567 652.622 143.915 609.302C185.294 588.769 223.976 564.82 262.981 540.237L280.239 529.898Z" fill="#FDE3B3"/>
<path d="M280.253 529.898C287.11 562.472 291.45 585.87 315.72 610.81L300.532 620.964C277.305 596.456 270.414 572.59 262.994 540.237L280.253 529.898Z" fill="#F8C987"/>
<path d="M3937.52 326.059L3958.04 334.401C4009.63 357.07 4054.33 380.017 4104.26 406.35C4121.83 418.197 4140.38 427.998 4158.93 438.211C4151.82 460.713 4148.22 466.88 4151.82 490.078C4072.14 456.488 4022.09 422.944 3929.61 389.727L3908.45 382.016C3914.97 355.079 3920.38 348.519 3937.52 326.059Z" fill="#FDE3B3"/>
<path d="M3937.52 326.059L3958.04 334.401C3936.87 354.301 3933.27 359.329 3929.61 389.727L3908.45 382.016C3914.97 355.079 3920.38 348.519 3937.52 326.059Z" fill="#F8C987"/>
<path d="M3740.09 280.138C3813.09 284.945 3869.14 300.783 3937.53 326.058C3920.39 348.517 3914.98 355.075 3908.46 382.012C3840.81 361.605 3778.67 347.604 3707.17 348.813C3712.25 347.73 3714.52 346.785 3719.32 345.083C3727.41 334.948 3729.44 318.19 3732.15 305.001C3734.58 300.444 3738.4 285.862 3740.09 280.138Z" fill="#FDE3B3"/>
<path d="M126.388 616.906L143.932 609.306C145.584 652.625 149.024 665.69 175.053 699.732L157.21 708.274C81.5966 734.485 3.16247 743.233 0 638.652C32.3661 657.302 94.3203 630.79 126.388 616.906Z" fill="#FDE3B3"/>
<path d="M126.388 616.906L143.932 609.306C145.584 652.625 149.024 665.69 175.053 699.732L157.21 708.274C134.113 681.947 127.351 650.88 126.388 616.906Z" fill="#F8C987"/>
<path d="M3445.43 319.886C3488.77 305.209 3578.91 282.497 3622.13 281.869C3643.02 327.582 3630.53 313.089 3628.32 352.676C3568.97 362.341 3522.77 371.874 3465.85 390.148C3465.95 359.19 3461.7 345.866 3445.43 319.886Z" fill="#FDE3B3"/>
<path d="M336.217 268.605C388.98 238.372 437.681 215.694 492.714 190.893C503.481 196.167 513.608 199.761 519.727 210.078C527.999 238.631 493.104 281.534 464.054 287.99C430.805 295.378 398.359 305.259 364.424 310.678C353.697 309.394 352.184 309.256 343.315 303.2C335.836 292.689 336.925 281.974 336.217 268.605Z" fill="#237F74"/>
<path d="M4852.92 596.247L4877.38 591.585C4884.54 611.688 4887.22 617.535 4901.31 633.945L4885.01 636.502C4835.08 648.078 4684.34 661.762 4636.87 651.081L4632.69 651.192C4625.27 631.705 4623.15 623.399 4620.75 602.487L4642.87 604.521C4723.1 607.835 4773.43 606.346 4852.92 596.247Z" fill="#FDE3B3"/>
<path d="M4620.75 602.48L4642.87 604.514C4642 628.103 4654.59 635.854 4653.36 649.08C4646.25 651.289 4644.1 650.997 4636.87 651.077L4632.68 651.188C4625.27 631.7 4623.15 623.392 4620.75 602.48Z" fill="#F8C987"/>
<path d="M4852.91 596.247L4877.37 591.585C4884.54 611.688 4887.21 617.537 4901.3 633.947L4885 636.504C4858.67 630.178 4871.77 610.494 4852.91 596.247Z" fill="#F8C987"/>
<path d="M2243.25 823.225C2141.24 722.955 2466.47 697.501 2370.82 811.006L2367.98 812.929L2350.33 814.791C2314.88 820.138 2279.1 822.957 2243.25 823.225Z" fill="#237F74"/>
<path d="M5238.79 477.812L5264.29 475.261C5273.92 496.776 5274.78 501.1 5272.44 525.202L5254.45 528.849C5228.3 535.224 5132.23 556.601 5114.2 567.161L5093.43 574.359C5091.71 549.453 5089.4 545.053 5073.93 526.215L5090.14 517.959C5150.87 487.096 5171.42 480.84 5238.79 477.812Z" fill="#FDE3B3"/>
<path d="M5073.93 526.233L5090.14 517.977C5105.4 537.323 5109.95 542.646 5114.2 567.18L5093.43 574.377C5091.71 549.471 5089.4 545.071 5073.93 526.233Z" fill="#F8C987"/>
<path d="M5238.8 477.812L5264.3 475.261C5273.93 496.776 5274.79 501.1 5272.46 525.202L5254.46 528.849C5246.95 503.703 5267.17 507.7 5238.8 477.812Z" fill="#F8C987"/>
<path d="M4400.31 553.195L4423.81 561.131C4500.66 584.252 4539.57 593.406 4620.73 602.487C4623.13 623.399 4625.25 631.707 4632.66 651.194C4550.83 641.947 4509.46 635.999 4429.59 611.807L4404.52 603.736C4399.23 583.584 4399.57 573.919 4400.31 553.195Z" fill="#FDE3B3"/>
<path d="M4400.31 553.195L4423.81 561.131C4411.17 586.098 4422.4 587.612 4429.59 611.807L4404.52 603.736C4399.23 583.584 4399.57 573.919 4400.31 553.195Z" fill="#F8C987"/>
<path d="M5035.12 543.337C5047.58 538.881 5061.73 531.89 5073.94 526.213C5089.42 545.051 5091.72 549.451 5093.45 574.357C5025.58 598.414 4971.75 616.572 4901.3 633.929C4887.21 617.519 4884.53 611.67 4877.36 591.567C4896.13 588.579 4920.13 581.908 4938.95 577.234C4971.9 568.643 5004.08 557.304 5035.12 543.337Z" fill="#FDE3B3"/>
<path d="M3645.41 278.471C3671.59 277.652 3694.85 276.997 3721.06 277.84L3739.49 277.972L3740.07 280.12C3738.38 285.843 3734.56 300.426 3732.13 304.983C3729.43 318.171 3727.4 334.929 3719.31 345.065C3714.51 346.766 3712.23 347.714 3707.15 348.797L3704.05 348.148C3689.16 348.81 3662.52 349.228 3648.74 351.671L3628.31 352.665C3630.52 313.079 3643.01 327.572 3622.12 281.858L3633.14 278.874L3645.41 278.471Z" fill="#FDE3B3"/>
<path d="M3633.14 278.874L3645.41 278.471C3653.47 297.373 3665.13 334.47 3648.74 351.671L3628.31 352.665C3630.52 313.079 3643.01 327.572 3622.12 281.858L3633.14 278.874Z" fill="#F8C987"/>
<path d="M3707.9 311.526C3717.49 309.753 3722.82 308.003 3732.14 305.006C3729.43 318.194 3727.4 334.952 3719.31 345.088C3714.51 346.789 3712.23 347.737 3707.16 348.82L3704.05 348.171C3701.03 336.081 3705.96 330.57 3711.71 317.4L3707.9 311.526Z" fill="#F8C987"/>
<path d="M3721.06 277.863L3739.48 277.996L3740.07 280.143C3738.38 285.867 3734.56 300.449 3732.13 305.006C3722.81 308.003 3717.49 309.754 3707.89 311.527L3706.63 308.289C3708.35 296.972 3715.06 287.925 3721.06 277.863Z" fill="#F8C987"/>
<path d="M1325.26 466.119C1359.95 422.504 1457.3 455.853 1465.95 508.579C1468.7 525.294 1450.77 531.86 1438.9 536.805C1402.68 513.943 1366.09 491.668 1329.16 469.986L1325.26 466.119Z" fill="#237F74"/>
<path d="M5399.88 436.214L5418.49 426.457C5421.42 435.208 5427.54 452.159 5429.23 460.388L5409.51 471.982C5361.37 498.725 5324.85 509.073 5272.46 525.228C5274.8 501.125 5273.94 496.802 5264.31 475.287C5320.58 467.025 5348.39 458.794 5399.88 436.214Z" fill="#FDE3B3"/>
<path d="M5399.89 436.214L5418.5 426.457C5421.43 435.208 5427.55 452.159 5429.24 460.388L5409.52 471.982C5407.09 458.227 5404.14 449.452 5399.89 436.214Z" fill="#F8C987"/>
<path d="M3620.7 229.62C3527.89 164.814 3762.21 142.243 3714.22 221.669C3685.4 233.556 3650.97 237.913 3620.7 229.62Z" fill="#237F74"/>
<path d="M4938.94 577.263C4871.41 531.18 5036.52 458.364 5035.1 543.365C5004.06 557.332 4971.89 568.671 4938.94 577.263Z" fill="#237F74"/>
<path d="M3620.71 229.607C3650.99 237.9 3685.41 233.543 3714.24 221.656C3727.49 242.457 3734.2 256.003 3745.89 276.561L3739.49 277.982L3721.06 277.85C3694.85 277.007 3671.6 277.662 3645.42 278.481L3633.14 278.884C3629.51 277.628 3628.87 276.782 3625.61 274.625C3620.87 257.944 3621.24 246.996 3620.71 229.607Z" fill="#237F74"/>
<path d="M336.231 268.602C336.938 281.972 335.849 292.687 343.328 303.198C352.197 309.254 353.711 309.392 364.438 310.675C338.907 314.685 318.102 321.18 293.374 328.328C295.082 344.222 297.229 352.748 290.006 367.414C290.224 337.655 296.974 326.258 271.486 310.392C293.261 294.714 313.352 282.548 336.231 268.602Z" fill="#237F74"/>
<path d="M2700.38 451.227C2721.67 447.033 2770.09 451.095 2789.87 463.175C2834.45 490.694 2816.08 554.555 2791.75 589.554C2744.96 656.838 2682.6 684.402 2605.61 700.006C2502.07 702.548 2430.09 667.229 2508.33 556.9C2551.21 496.436 2627.79 461.108 2700.38 451.227Z" fill="#237F74"/>
<path d="M2017.33 500.19C2078.44 493.418 2324.05 520.951 2295.82 632.742C2289.23 658.839 2238.74 684.412 2213.02 694.625C2210.51 695.277 2207.99 695.914 2205.47 696.533C2141 712.358 2077.71 705.238 2018.84 670.181C1981.84 648.149 1913.45 586.269 1944.13 535.198C1958.47 511.314 1991.51 504.907 2017.33 500.19Z" fill="#237F74"/>
<path d="M1795.26 587.774C1825.54 586.759 1848.89 586.288 1879.06 587.866C1896.22 602.264 1955.17 691.589 1955.17 691.589L1938.04 699.229C1907.81 700.734 1881.05 700.374 1850.75 699.851C1849.56 698.697 1848.39 697.528 1847.24 696.343C1830.02 678.696 1776.42 594.987 1776.42 594.987C1776.42 594.987 1781.56 589.617 1795.26 587.774Z" fill="#EE8918"/>
<path d="M2997.85 404.544C3077.62 403.578 3025.29 514.805 2926.79 527.218C2885.56 521.298 2878.52 495.669 2901.96 463.999C2927.03 430.194 2957.06 412.264 2997.85 404.544Z" fill="#237F74"/>
<path d="M1482.56 410.752C1511.19 409.792 1539.97 410.281 1568.62 410.481C1582.6 423.789 1634.68 492.713 1640.13 514.976C1641.24 519.49 1638.58 520.619 1634.94 525.05C1606.04 524.69 1573.39 521.859 1544.24 519.936C1529.65 503.984 1477.09 436.147 1476.64 416.481L1482.56 410.752Z" fill="#EE8918"/>
<path d="M1681.73 415.36C1713.86 413.261 1745.09 414.668 1777.22 415.818C1792.37 431.598 1848.08 495.256 1847.83 516.442C1815.74 518.036 1782.41 517.162 1750.18 516.778C1733.71 498.86 1686.56 437.035 1681.73 415.36Z" fill="#EE8918"/>
<path d="M1938.44 706.211C1942.28 706.543 1940.46 706.257 1944.29 709.78C1952.71 752.142 1924.58 749.311 1893.8 742.172C1885.54 737.557 1881.91 732.898 1883.1 723.885C1894.3 710.9 1921.36 708.771 1938.44 706.211Z" fill="#237F74"/>
<path d="M5464.07 79.3429C5422.14 39.7814 5376.18 62.0352 5360.16 42.06C5363.26 20.6386 5396 8.72135 5414.02 3.66355C5449.4 -6.27297 5483.95 5.31778 5514.77 22.6633C5558.4 55.0567 5570.89 80.3725 5586.42 131.84C5592.23 183.412 5590.36 218.829 5570.48 268.481L5552.18 299.993C5523.29 222.989 5511.17 234.171 5436.36 255.422C5445.62 242.073 5454.97 228.789 5464.41 215.57C5473.89 195.588 5476.38 186.932 5482.13 165.426C5488.84 129.147 5484.1 109.291 5464.07 79.3429Z" fill="#26A296"/>
<path d="M5514.77 22.6559C5558.39 55.0493 5570.88 80.3651 5586.42 131.832C5536.12 160.886 5506.03 64.4119 5514.77 22.6559Z" fill="#237F74"/>
<path d="M5517.59 134.782C5520.24 151.752 5521.04 156.491 5516.36 173.535C5510.82 193.819 5490.46 229.87 5464.43 215.589C5473.91 195.607 5476.4 186.951 5482.15 165.445C5495.69 150.17 5500.7 146.693 5517.59 134.782Z" fill="#237F74"/>
<path d="M5464.08 79.3469C5520.62 73.8605 5505.24 98.1559 5517.58 134.767C5500.69 146.678 5495.67 150.156 5482.14 165.43C5488.84 129.151 5484.11 109.295 5464.08 79.3469Z" fill="#237F74"/>
<path d="M844.632 317.984C871.202 318.073 897.757 319.156 924.247 321.23C909.047 354.856 909.502 373.47 915.083 410.321C868.2 408.115 833.376 408.213 786.523 413.099L761.986 416.407C753.163 397.154 748.687 348.151 747.324 325.27L771.529 323.107C797.619 320.267 818.381 318.919 844.632 317.984Z" fill="#FDE3B3"/>
<path d="M747.324 325.27L771.529 323.107C766.062 363.091 762.771 378.448 786.523 413.099L761.986 416.407C753.163 397.154 748.687 348.151 747.324 325.27Z" fill="#F8C987"/>
<path d="M653.724 345.385C686.117 336.988 714.364 331.437 747.327 325.258C748.69 348.139 753.166 397.142 761.989 416.395C706.04 425.922 675.826 433.17 621.849 450.522C621.049 447.399 614.355 434.93 612.398 430.349C600.576 402.624 600.151 392.208 600.173 362.142L624.557 354.472L653.724 345.385Z" fill="#FDE3B3"/>
<path d="M404.875 451.836C407.103 485.887 413.037 507.476 435.811 534.117C396.868 558.1 352.691 584.616 315.702 610.792C291.433 585.853 287.092 562.454 280.235 529.88C308.946 510.566 338.005 491.774 367.399 473.517L404.875 451.836Z" fill="#FDE3B3"/>
</svg>
