<svg width="1100" height="934" viewBox="0 0 1100 934" fill="none" xmlns="http://www.w3.org/2000/svg">
<path d="M55.8628 310.83L157.194 230.717C157.622 230.897 158.055 231.077 158.491 231.256L166.109 233.85C189.042 240.03 201.912 239.709 222.34 235.671C226.211 234.908 233.584 232.774 237.305 232.844L243.268 228.949L260.975 218.011C321.239 177.042 386.562 149.893 481.781 168.706C538.046 179.833 595.108 209.078 637.167 251.668C673.233 288.125 694.568 331.86 696.368 373.006C696.747 382.676 696.181 392.124 694.686 401.246C688.996 429.394 677.025 450.006 654.659 467.902C644.523 486.691 582.856 512.171 561.846 524.22C558.918 525.861 555.813 527.957 552.979 529.748C543.911 536.112 537.716 543.8 535.337 554.618L534.464 560.08L535.645 570.974C537.83 577.36 538.834 580.252 542.939 586.398C551.104 596.182 566.77 611.362 579.924 613.279L586.357 615.585C584.731 623.542 578.464 631.743 576.112 639.739C597.569 642.247 609.98 639.044 626.813 631.94C643.077 621.743 654.325 613.131 663.869 597.114C665.796 594.503 668.332 590.724 670.477 588.396C684.383 568.756 695.872 550.637 716.381 535.963C751.806 511.468 793.282 506.421 846.582 528.688C877.424 544.167 892.039 556.018 911.882 582.011C923.639 599.193 927.151 607.679 932.632 625.932C936.678 643.597 936.923 654.575 935.245 671.247C933.277 682.426 930.855 693.885 927.198 704.362C924.269 717.098 922.299 728.56 926.364 743.35C930.133 757.059 944.859 765.719 944.835 778.316C944.823 780.901 942.984 781.203 941.073 781.843C930.278 780.563 918.201 771.739 909.656 764.473C893.534 750.789 884.237 730.81 881.336 714.014C877.552 703.749 879.446 679.14 879.975 669.035C878.934 640.256 863.644 604.509 820.327 600.481C800.198 598.604 786.096 610.66 775.782 622.012C769.488 630.634 764.024 639.803 759.426 649.46C746.598 675.962 733.98 692.833 710.174 711.377C680.717 731.892 649.175 742.293 606.172 741.714C554.203 739.234 508.345 722.551 461.235 689.725C435.239 670.204 412.502 647.457 395.651 622.112C369.311 582.61 359.662 539.915 368.819 503.385C376.706 471.799 397.291 446.403 427.544 430.931C451.124 418.114 483.828 408.602 503.761 395.751C519.404 384.723 530.302 375.109 533.515 355.577C536.174 318.205 498.53 292.425 458.43 283.87C450.245 282.672 440.539 282.544 432.429 282.231C432.062 282.34 417.362 284.463 415.608 284.761C400.216 287.387 389.858 290.606 376.173 295.939L371.705 297.425C366.302 301.163 336.496 318.06 331.304 319.972C330.992 320.376 330.68 320.78 330.373 321.175C299.88 349.606 251.201 372.2 199.712 369.848C151.177 367.634 105.662 348.653 64.766 317.805C61.3832 315.215 58.5358 312.991 55.8628 310.83Z" fill="#04B1A4"/>
<path d="M64.7661 317.804L66.0518 316.477C77.792 326.903 110.583 345.052 125.203 350.962L126.89 350.276L126.616 348.281C123.738 326.606 154.298 334.414 159.947 327.371C154.707 320.893 126.582 312.559 121.907 305.984C140.903 307.153 154.356 309.293 165.327 297.619L166.337 297.916C192.482 305.94 223.655 325.93 245.486 314.196C261.312 305.695 270.126 296.17 295.316 308.053C297.695 291.46 304.1 273.749 329.679 282.729C335.104 284.632 342.943 290.252 347.225 290.62C353.968 285.303 354.664 278.632 362.036 272.784C361.898 284.607 363.313 287.356 376.173 295.938L371.705 297.424C366.303 301.163 336.496 318.059 331.304 319.972C330.992 320.376 330.68 320.779 330.373 321.174C299.88 349.605 251.201 372.199 199.712 369.847C151.177 367.634 105.662 348.652 64.7661 317.804Z" fill="#198076"/>
<path d="M331.311 319.966C338.458 309.119 347.72 298.01 364.44 297.171C366.805 297.066 369.238 297.15 371.712 297.419C366.31 301.157 336.503 318.054 331.311 319.966Z" fill="#F3C883"/>
<path d="M362.046 272.778C366.822 266.721 363.62 261.985 366.283 257.289C382.408 228.858 436.757 229.708 474.808 241.252C480.606 241.386 482.699 240.294 487.938 239.135C500.168 236.429 516.49 243.955 528.348 251.442C538.978 258.143 557.985 280.449 556.99 290.85C556.281 302.212 549.785 296.09 548.48 306.51C559.827 328.449 552.866 347.225 533.525 355.571C536.184 318.198 498.54 292.419 458.44 283.863C450.255 282.666 440.549 282.537 432.439 282.225C432.072 282.333 417.372 284.456 415.618 284.755C400.226 287.381 389.868 290.6 376.183 295.933C363.323 287.351 361.908 284.602 362.046 272.778Z" fill="#198076"/>
<path d="M455.419 269.762C462.474 266.092 472.552 262.21 481.439 261.438C490.976 267.189 500.479 273.315 510.083 278.883C527.198 288.8 536.037 291.383 548.479 306.506C559.826 328.445 552.865 347.222 533.525 355.567C536.184 318.195 498.539 292.415 458.44 283.86C459.894 278.81 458.165 275.252 455.419 269.762Z" fill="#04B1A4"/>
<path d="M432.441 282.221L432.883 279.93L431.67 280.23C435.844 274.404 447.794 272.698 455.421 269.762C458.167 275.252 459.897 278.81 458.442 283.86C450.257 282.663 440.551 282.534 432.441 282.221Z" fill="#198076"/>
<path d="M548.481 306.512C549.786 296.092 556.283 302.214 556.992 290.852C575.817 306.716 567.98 320.354 573.911 335.268C586.377 341.835 586.649 347.181 592.62 357.659C615.364 397.561 582.413 405.728 549.216 410.456C537.305 412.276 513.755 408.051 503.773 395.747C519.416 384.719 530.314 375.104 533.527 355.573C552.867 347.227 559.828 328.451 548.481 306.512Z" fill="#198076"/>
<path d="M540.541 510.533C522.419 500.876 493.024 508.125 484.131 496.813C482.358 489.344 488.315 479.468 490.277 473.073C499.653 442.505 530.396 449.771 563.745 452.701C581.488 454.262 589.075 457.483 584.685 472.445C582.192 477.236 579.694 480.983 576.591 485.367C572.386 491.31 564.798 495.686 564.804 503.388C556.393 505.638 549.693 507.811 541.643 510.628L540.541 510.533Z" fill="#198076"/>
<path d="M368.822 503.385C376.709 471.799 397.293 446.403 427.546 430.931C437.223 434.586 446.852 435.55 455.601 441.699C460.358 450.291 446.934 482.847 440.857 489.501C436.216 494.579 424.535 499.478 417.209 502.314C400.441 508.806 390.863 514.341 368.822 503.385Z" fill="#198076"/>
<path d="M775.786 622.009C765.9 602.655 774.416 587.746 784.056 575.051C784.288 574.745 782.555 570.211 782.268 569.498C785.178 565.003 794.316 562.215 800.704 561.85C810.562 561.203 821.544 564.503 830.892 570.916C839.401 576.711 844.173 582.481 849.853 590.07C860.321 593.555 878.105 604.936 884.358 613.541C893.435 626.057 898.662 669.035 879.979 669.032C878.939 640.253 863.648 604.506 820.332 600.478C800.203 598.601 786.1 610.657 775.786 622.009Z" fill="#198076"/>
<path d="M567.224 638.234L576.115 639.74C597.571 642.247 609.983 639.045 626.815 631.94C635.73 634.224 653.739 637.68 659.877 644.779C663.448 656.26 657.996 657.713 654.589 666.587C641.522 700.629 592.37 691.688 562.762 659.746C557.491 654.06 565.598 645.149 567.224 638.234Z" fill="#198076"/>
<path d="M461.238 689.727C468.297 691.443 468.581 692.673 471.058 687.043C480.423 683.005 517.145 681.207 532.293 686.839C550.041 693.438 589.34 717.863 603.632 731.982C605.801 734.126 606.247 739.376 606.175 741.715C554.206 739.236 508.348 722.553 461.238 689.727Z" fill="#198076"/>
<path d="M710.176 711.378C699.057 708.853 685.331 707.113 687.839 693.544C690.777 677.654 690.457 651.757 704.951 642.496C715.379 637.635 735.241 629.663 748.29 629.692C752.107 629.698 757.533 645.878 759.428 649.461C746.6 675.963 733.982 692.834 710.176 711.378Z" fill="#198076"/>
<path d="M541.642 510.628C549.692 507.812 556.392 505.639 564.802 503.389C564.797 495.686 572.385 491.31 576.589 485.368C579.692 480.983 582.19 477.237 584.683 472.446L585.796 473.645C596.232 469.456 626.325 450.827 632.774 443.355C629.164 451.881 626.303 470.592 632.187 480.936C639.824 476.749 647.316 472.403 654.665 467.899C644.528 486.689 582.862 512.169 561.852 524.217C556.109 520.96 545.741 515.08 541.642 510.628Z" fill="#198076"/>
<path d="M541.642 510.628C549.692 507.812 556.392 505.639 564.802 503.389C587.324 497.75 612.978 491.142 632.187 480.936C639.824 476.749 647.316 472.403 654.665 467.899C644.528 486.689 582.862 512.169 561.852 524.217C556.109 520.96 545.741 515.08 541.642 510.628Z" fill="#FADBA6"/>
<path d="M632.78 443.352C635.681 432.478 638.57 426.611 648.947 420.529C660.654 413.666 672.176 406.166 685.021 400.643C687.254 399.695 691.967 400.787 694.697 401.24C689.008 429.388 677.037 450 654.67 467.896C647.322 472.4 639.829 476.746 632.193 480.932C626.309 470.589 629.17 451.877 632.78 443.352Z" fill="#198076"/>
<path d="M503.317 592.834C514.207 591.981 532 588.473 542.943 586.398C551.107 596.182 566.773 611.362 579.927 613.279L586.36 615.585C584.734 623.542 578.467 631.743 576.115 639.739L567.225 638.233C538.594 631.434 518.667 616.526 503.317 592.834Z" fill="#FADBA6"/>
<path d="M567.223 638.233C568.321 633.594 577.247 618.317 579.925 613.279L586.358 615.585C584.732 623.542 578.465 631.742 576.114 639.739L567.223 638.233Z" fill="#ECBE77"/>
<path d="M881.338 714.009L884.033 715.346L884.994 719.733C887.742 721.963 889.948 722.177 893.319 723.034C901.712 730.283 898.648 747.621 912.833 753.314C917.315 752.901 915.829 753.776 918.003 751.309C917.768 744.061 909.334 736.084 905.922 729.133C901.349 719.842 910.854 699.646 921.632 700.01C923.62 701.523 925.304 702.766 927.2 704.358C924.271 717.094 922.301 728.555 926.366 743.345C930.135 757.054 944.861 765.714 944.837 778.311C944.825 780.896 942.986 781.198 941.075 781.838C930.28 780.559 918.202 771.734 909.658 764.468C893.536 750.784 884.239 730.805 881.338 714.009Z" fill="#198076"/>
<path d="M498.103 544.964L500.963 539.834C508.428 546.385 525.836 551.63 535.338 554.619L534.466 560.081L535.647 570.974C537.831 577.36 538.836 580.253 542.941 586.398C531.998 588.474 514.205 591.982 503.316 592.835L499.724 586.848L499.869 586.024C492.541 569.632 494.338 558.635 498.103 544.964Z" fill="#FADBA6"/>
<path d="M499.866 586.023C511.949 585.147 527.462 577.318 535.644 570.974C537.829 577.36 538.833 580.253 542.939 586.398C531.996 588.473 514.203 591.981 503.313 592.834L499.721 586.848L499.866 586.023Z" fill="#ECBE77"/>
<path d="M498.11 544.961L500.971 539.831C508.435 546.382 525.844 551.627 535.346 554.616L534.473 560.078C526.556 561.479 506.032 549.992 498.11 544.961Z" fill="#ECBE77"/>
<path d="M670.485 588.393C684.392 568.753 695.881 550.635 716.389 535.96C720.196 537.817 721.051 537.914 723.879 540.931C732.06 563.512 714.028 590.288 690.482 592.009C680.494 592.744 680.577 593.827 670.485 588.393Z" fill="#198076"/>
<path d="M501.241 538.532C510.399 527.311 516.587 522.03 530.581 515.092L540.541 510.535L541.644 510.63C545.743 515.082 556.111 520.961 561.853 524.219C558.925 525.86 555.82 527.956 552.986 529.747C543.918 536.112 537.723 543.8 535.344 554.618C525.842 551.628 508.433 546.383 500.969 539.832L501.241 538.532Z" fill="#FADBA6"/>
<path d="M530.579 515.091L540.539 510.534L541.641 510.629C545.74 515.081 556.108 520.96 561.851 524.218C558.922 525.859 555.818 527.955 552.983 529.746L552.343 529.387C543.006 524.34 539.266 521.45 530.579 515.091Z" fill="#F3C883"/>
<path d="M463.382 545.088C473.748 540.185 486.476 532.217 501.237 538.533L500.965 539.833L498.105 544.964C494.34 558.635 492.543 569.631 499.87 586.023L499.726 586.848C493.826 587.174 484.118 581.422 479.437 577.198C467.453 566.382 465.26 557.035 463.382 545.088Z" fill="#198076"/>
<path d="M846.592 528.679C877.434 544.159 892.049 556.01 911.892 582.002C893.437 585.359 860.79 560.046 850.274 544.62C845.485 537.593 844.934 535.061 846.592 528.679Z" fill="#198076"/>
<path d="M935.254 671.239C915.993 662.29 910.988 644.701 912.502 630.382C914.112 615.184 920.741 620.801 932.641 625.924C936.687 643.589 936.931 654.567 935.254 671.239Z" fill="#198076"/>
<path d="M243.274 228.942L260.981 218.004C264.411 221.366 266.323 222.447 266.569 227.131C267.001 235.442 259.785 242.204 253.517 246.438C250.351 248.574 245.549 248.491 242.584 249.815C244.622 242.8 248.622 236.955 243.274 228.942Z" fill="#198076"/>
<path d="M399.842 562.161C401.666 559.271 403.536 558.386 407.584 558.291C414.553 561.552 417.87 566.308 423.551 570.03C462.66 595.661 476.225 612.797 471.23 649.169C459.037 648.567 447.129 644.016 434.96 639.445C409.865 614.841 397.869 589.31 399.842 562.161Z" fill="#198076"/>
<path d="M605.646 320.35C610.365 312.569 630.793 298.263 637.49 289.952C638.961 288.127 640.654 288.787 642.602 289.211C652.533 296.728 660.819 324.188 663.553 334.029C665.056 341.237 671.582 369.58 659.746 367.372C651.607 362.297 644.874 353.785 637.568 347.323C629.053 339.804 610.891 328.65 605.646 320.35Z" fill="#F99508"/>
<path d="M534.877 202.737C542.548 200.972 561.899 211.801 569.74 216.778C579.251 222.819 620.121 248.854 614.488 257.531C610.47 258.609 605.203 256.829 600.285 255.687C536.546 245.329 558.482 261.727 534.877 202.737Z" fill="#F99508"/>
<path d="M401.931 181.007C413.239 171.991 464.047 179.179 481.993 183.257C488.416 184.714 493.838 185.596 495.725 191.665C480.365 198.048 465.347 208.428 451.673 217.085C442.448 211.236 409.044 187.462 401.931 181.007Z" fill="#F99508"/>
<path d="M293.43 217.906C299.28 207.112 355.853 178.569 365.394 187.414L365.126 190.902C337.654 236.85 375.694 234.416 293.43 217.906Z" fill="#F99508"/>
<path d="M743.617 531.564C756.961 520.445 790.573 520.077 812.03 525.938C810.848 527.027 810.345 527.446 808.759 528.167C797.592 533.242 789.546 539.571 780.73 546.954C767.439 540.319 757.291 536.469 743.617 531.564Z" fill="#F99508"/>
<path d="M463.491 468.484C466.273 464.43 467.25 460.494 474.031 462.199L476.653 465.459C475.757 469.763 475.523 472.208 471.144 473.795C466.262 471.94 467.816 472.569 463.491 468.484Z" fill="#198076"/>
<path d="M586.361 615.587C625.712 621.861 638.449 614.59 663.873 597.116C654.33 613.132 643.082 621.745 626.817 631.942C609.985 639.046 597.573 642.248 576.117 639.741C578.468 631.745 584.735 623.544 586.361 615.587Z" fill="#FADBA6"/>
</svg>
